<svg width="50" height="35" viewBox="0 0 50 35" fill="none" xmlns="http://www.w3.org/2000/svg">
<path d="M14.6768 34.5168C12.4777 34.5168 10.4698 34.1503 8.65311 33.4172C6.83643 32.6842 5.29067 31.6006 4.01581 30.1664C2.74095 28.7003 1.75293 26.8995 1.05176 24.7641C0.350586 22.5969 0 20.095 0 17.2584C0 14.4218 0.350586 11.9359 1.05176 9.80048C1.75293 7.63322 2.74095 5.83248 4.01581 4.39826C5.29067 2.93218 6.83643 1.83261 8.65311 1.09957C10.4698 0.366522 12.4777 0 14.6768 0C16.8759 0 18.8839 0.366522 20.7005 1.09957C22.5172 1.83261 24.063 2.93218 25.3378 4.39826C26.6127 5.83248 27.6007 7.63322 28.3019 9.80048C29.003 11.9359 29.3536 14.4218 29.3536 17.2584C29.3536 20.095 29.003 22.5969 28.3019 24.7641C27.6007 26.8995 26.6127 28.7003 25.3378 30.1664C24.063 31.6006 22.5172 32.6842 20.7005 33.4172C18.8839 34.1503 16.8759 34.5168 14.6768 34.5168ZM14.6768 28.0628C16.8759 28.0628 18.5811 27.3457 19.7922 25.9115C21.0352 24.4773 21.6567 22.4216 21.6567 19.7444V14.7724C21.6567 12.0952 21.0352 10.0395 19.7922 8.6053C18.5811 7.17108 16.8759 6.45397 14.6768 6.45397C12.4777 6.45397 10.7566 7.17108 9.51364 8.6053C8.30252 10.0395 7.69696 12.0952 7.69696 14.7724V19.7444C7.69696 22.4216 8.30252 24.4773 9.51364 25.9115C10.7566 27.3457 12.4777 28.0628 14.6768 28.0628Z" fill="#198CA2"/>
<path d="M34.128 33.9431V28.1584H38.4307V6.35836H34.128V0.573688H50V6.35836H45.6973V28.1584H50V33.9431H34.128Z" fill="#198CA2"/>
</svg>
